<svg width="52" height="20" viewBox="0 0 52 20" fill="none" xmlns="http://www.w3.org/2000/svg">
<rect width="52" height="20" rx="4" fill="#4A6CFA"/>
<path d="M8.3 11.75C8.3 11.3567 8.39 10.9667 8.57 10.58H10.07C9.93 10.9733 9.86 11.3333 9.86 11.66C9.86 11.9133 9.90333 12.14 9.99 12.34C10.0833 12.54 10.2133 12.7 10.38 12.82C10.5467 12.9333 10.7467 12.99 10.98 12.99C11.22 12.99 11.4233 12.9333 11.59 12.82C11.7567 12.7067 11.8833 12.55 11.97 12.35C12.0567 12.15 12.1 11.9233 12.1 11.67C12.1 11.3567 12.05 11.0767 11.95 10.83C11.8567 10.5833 11.7433 10.3733 11.61 10.2C11.4767 10.0267 11.29 9.81 11.05 9.55C10.83 9.31 10.6467 9.08333 10.5 8.87C10.36 8.65 10.24 8.37667 10.14 8.05C10.0467 7.71667 10 7.32 10 6.86H11.56C11.56 7.15333 11.5967 7.42 11.67 7.66C11.7433 7.89333 11.8367 8.10333 11.95 8.29C12.07 8.47667 12.22 8.67667 12.4 8.89C12.68 9.22333 12.9 9.50667 13.06 9.74C13.22 9.96667 13.36 10.25 13.48 10.59C13.6 10.93 13.66 11.3167 13.66 11.75C13.66 12.21 13.5433 12.6233 13.31 12.99C13.0767 13.3567 12.7533 13.6467 12.34 13.86C11.9333 14.0667 11.4733 14.17 10.96 14.17C10.4467 14.17 9.98667 14.0667 9.58 13.86C9.18 13.6533 8.86667 13.3667 8.64 13C8.41333 12.6267 8.3 12.21 8.3 11.75ZM14.6352 6.86H16.1952V9.89H16.2152C16.3685 9.66333 16.5852 9.48667 16.8652 9.36C17.1518 9.22667 17.4585 9.16 17.7852 9.16C18.2052 9.16 18.5885 9.26333 18.9352 9.47C19.2818 9.67667 19.5552 9.97 19.7552 10.35C19.9618 10.7233 20.0652 11.1533 20.0652 11.64C20.0652 12.12 19.9518 12.5533 19.7252 12.94C19.4985 13.32 19.1785 13.62 18.7652 13.84C18.3518 14.06 17.8785 14.17 17.3452 14.17C16.8052 14.17 16.3285 14.06 15.9152 13.84C15.5085 13.62 15.1918 13.32 14.9652 12.94C14.7452 12.5533 14.6352 12.12 14.6352 11.64V6.86ZM16.1452 11.68C16.1452 11.9467 16.1952 12.18 16.2952 12.38C16.4018 12.5733 16.5452 12.7233 16.7252 12.83C16.9052 12.9367 17.1118 12.99 17.3452 12.99C17.5652 12.99 17.7618 12.9367 17.9352 12.83C18.1152 12.7233 18.2552 12.57 18.3552 12.37C18.4552 12.17 18.5052 11.94 18.5052 11.68C18.5052 11.4133 18.4552 11.18 18.3552 10.98C18.2618 10.7733 18.1252 10.6167 17.9452 10.51C17.7718 10.4033 17.5718 10.35 17.3452 10.35C17.1118 10.35 16.9052 10.4033 16.7252 10.51C16.5452 10.6167 16.4018 10.7733 16.2952 10.98C16.1952 11.18 16.1452 11.4133 16.1452 11.68ZM20.7512 11.75C20.7512 11.3567 20.8412 10.9667 21.0212 10.58H22.5212C22.3812 10.9733 22.3112 11.3333 22.3112 11.66C22.3112 11.9133 22.3545 12.14 22.4412 12.34C22.5345 12.54 22.6645 12.7 22.8312 12.82C22.9978 12.9333 23.1978 12.99 23.4312 12.99C23.6712 12.99 23.8745 12.9333 24.0412 12.82C24.2078 12.7067 24.3345 12.55 24.4212 12.35C24.5078 12.15 24.5512 11.9233 24.5512 11.67C24.5512 11.3567 24.5012 11.0767 24.4012 10.83C24.3078 10.5833 24.1945 10.3733 24.0612 10.2C23.9278 10.0267 23.7412 9.81 23.5012 9.55C23.2812 9.31 23.0978 9.08333 22.9512 8.87C22.8112 8.65 22.6912 8.37667 22.5912 8.05C22.4978 7.71667 22.4512 7.32 22.4512 6.86H24.0112C24.0112 7.15333 24.0478 7.42 24.1212 7.66C24.1945 7.89333 24.2878 8.10333 24.4012 8.29C24.5212 8.47667 24.6712 8.67667 24.8512 8.89C25.1312 9.22333 25.3512 9.50667 25.5112 9.74C25.6712 9.96667 25.8112 10.25 25.9312 10.59C26.0512 10.93 26.1112 11.3167 26.1112 11.75C26.1112 12.21 25.9945 12.6233 25.7612 12.99C25.5278 13.3567 25.2045 13.6467 24.7912 13.86C24.3845 14.0667 23.9245 14.17 23.4112 14.17C22.8978 14.17 22.4378 14.0667 22.0312 13.86C21.6312 13.6533 21.3178 13.3667 21.0912 13C20.8645 12.6267 20.7512 12.21 20.7512 11.75ZM27.1363 7.96C27.3163 7.55333 27.5697 7.24 27.8963 7.02C28.223 6.8 28.5963 6.69 29.0163 6.69C29.363 6.69 29.6797 6.77333 29.9663 6.94C30.253 7.10667 30.453 7.33667 30.5663 7.63H30.6063C30.6663 7.43667 30.7663 7.27 30.9063 7.13C31.0463 6.98333 31.2063 6.87333 31.3863 6.8C31.573 6.72667 31.763 6.69 31.9563 6.69C32.163 6.69 32.3597 6.72667 32.5463 6.8C32.7397 6.87333 32.9063 6.98 33.0463 7.12C33.1863 7.26 33.283 7.43 33.3363 7.63H33.3763C33.503 7.33667 33.703 7.10667 33.9763 6.94C34.2497 6.77333 34.553 6.69 34.8863 6.69C35.313 6.69 35.693 6.79667 36.0263 7.01C36.3597 7.21667 36.6197 7.51667 36.8063 7.91C36.9997 8.30333 37.0963 8.76333 37.0963 9.29C37.0963 10.0967 36.9763 10.8067 36.7363 11.42H35.1963C35.4297 10.82 35.5463 10.1233 35.5463 9.33C35.5463 8.83667 35.4797 8.46667 35.3463 8.22C35.213 7.97333 35.0197 7.85 34.7663 7.85C34.5663 7.85 34.3997 7.93333 34.2663 8.1C34.1397 8.26667 34.0763 8.49 34.0763 8.77V10.57H32.6663V8.76C32.6663 8.47333 32.603 8.25 32.4763 8.09C32.3563 7.93 32.1897 7.85 31.9763 7.85C31.763 7.85 31.593 7.93333 31.4663 8.1C31.3397 8.26667 31.2763 8.48667 31.2763 8.76V10.57H29.8663V8.79C29.8663 8.49 29.8063 8.26 29.6863 8.1C29.573 7.93333 29.4097 7.85 29.1963 7.85C28.943 7.85 28.7463 7.98333 28.6063 8.25C28.473 8.51 28.4063 8.88333 28.4063 9.37C28.4063 9.89 28.523 10.3367 28.7563 10.71C28.9897 11.0833 29.2863 11.3733 29.6463 11.58C30.013 11.78 30.3963 11.9 30.7963 11.94L31.0663 11.97C31.313 11.99 31.5897 12.02 31.8963 12.06C32.203 12.0933 32.473 12.1333 32.7063 12.18C33.3397 12.3133 33.8097 12.5267 34.1163 12.82C34.4297 13.1067 34.5997 13.5 34.6263 14H32.9163C32.863 13.68 32.6663 13.4533 32.3263 13.32C31.9863 13.1867 31.543 13.12 30.9963 13.12H27.7863V12.1H28.7663V12.06C28.4197 11.94 28.0997 11.7567 27.8063 11.51C27.5197 11.2633 27.2897 10.96 27.1163 10.6C26.943 10.24 26.8563 9.83667 26.8563 9.39C26.8563 8.84333 26.9497 8.36667 27.1363 7.96ZM37.9831 9.38C37.9831 8.82 38.0998 8.33667 38.3331 7.93C38.5665 7.52333 38.8831 7.21667 39.2831 7.01C39.6831 6.79667 40.1331 6.69 40.6331 6.69C41.1265 6.69 41.5731 6.79667 41.9731 7.01C42.3798 7.21667 42.6998 7.52667 42.9331 7.94C43.1665 8.34667 43.2831 8.83 43.2831 9.39V10.77C43.2831 11.3767 43.2265 11.98 43.1131 12.58C42.9998 13.1733 42.8565 13.6467 42.6831 14H41.1731C41.3331 13.64 41.4631 13.1667 41.5631 12.58C41.6631 11.9933 41.7131 11.41 41.7131 10.83V9.42C41.7131 8.94 41.6198 8.56333 41.4331 8.29C41.2531 8.01 40.9865 7.87 40.6331 7.87C40.2731 7.87 39.9998 8.01 39.8131 8.29C39.6331 8.56333 39.5431 8.94 39.5431 9.42V10.83C39.5431 11.4033 39.5931 11.9833 39.6931 12.57C39.7998 13.1567 39.9298 13.6333 40.0831 14H38.5731C38.3998 13.6533 38.2565 13.18 38.1431 12.58C38.0365 11.98 37.9831 11.3767 37.9831 10.77V9.38Z" fill="white"/>
</svg>
