<svg width="458" height="24" viewBox="0 0 458 24" fill="none" xmlns="http://www.w3.org/2000/svg">
<rect width="108" height="24" rx="12" fill="white"/>
<path fill-rule="evenodd" clip-rule="evenodd" d="M12.6352 6.75V8.81536L13.3608 8.81296V6.75H12.6352ZM16.8611 8.12151L15.3154 9.5781L15.8277 10.0626L17.375 8.60677L16.8611 8.12151ZM9.35847 15.6884V16.375H16.6375V15.6884H15.9104V12.253C15.809 10.7061 14.5349 9.50365 12.9972 9.50365C11.4596 9.50365 10.1855 10.7061 10.084 12.253V15.6884H9.35847ZM8.625 8.60764L9.13891 8.12238L10.6806 9.57897L10.1675 10.0602L8.625 8.60764Z" fill="#FF3B30"/>
<path d="M27.72 15.12C27.144 15.12 26.636 15 26.196 14.76C25.764 14.512 25.428 14.168 25.188 13.728C24.956 13.28 24.84 12.76 24.84 12.168V5.676H26.016V12.24C26.016 12.808 26.172 13.26 26.484 13.596C26.804 13.932 27.212 14.1 27.708 14.1C28.196 14.1 28.596 13.936 28.908 13.608C29.228 13.28 29.388 12.872 29.388 12.384C29.388 12.096 29.352 11.852 29.28 11.652C29.216 11.444 29.112 11.188 28.968 10.884C28.808 10.564 28.688 10.28 28.608 10.032C28.528 9.784 28.5 9.476 28.524 9.108H29.7C29.692 9.388 29.72 9.628 29.784 9.828C29.848 10.02 29.952 10.268 30.096 10.572C30.256 10.884 30.376 11.176 30.456 11.448C30.544 11.712 30.588 12.04 30.588 12.432C30.588 12.92 30.472 13.368 30.24 13.776C30.008 14.184 29.676 14.512 29.244 14.76C28.812 15 28.304 15.12 27.72 15.12ZM35.011 9.12C35.003 9.392 35.071 9.624 35.215 9.816C35.359 10.008 35.583 10.236 35.887 10.5C36.151 10.724 36.363 10.928 36.523 11.112C36.691 11.296 36.835 11.524 36.955 11.796C37.075 12.06 37.135 12.372 37.135 12.732C37.135 13.228 37.011 13.656 36.763 14.016C36.523 14.376 36.195 14.652 35.779 14.844C35.371 15.028 34.919 15.12 34.423 15.12C33.919 15.12 33.459 15.016 33.043 14.808C32.635 14.6 32.311 14.304 32.071 13.92C31.839 13.528 31.723 13.08 31.723 12.576C31.723 12.336 31.747 12.092 31.795 11.844L32.959 11.88C32.919 12.104 32.899 12.304 32.899 12.48C32.899 12.992 33.039 13.396 33.319 13.692C33.599 13.98 33.967 14.124 34.423 14.124C34.879 14.124 35.247 14 35.527 13.752C35.815 13.504 35.959 13.156 35.959 12.708C35.959 12.38 35.875 12.108 35.707 11.892C35.547 11.676 35.299 11.428 34.963 11.148C34.707 10.932 34.499 10.744 34.339 10.584C34.187 10.416 34.059 10.212 33.955 9.972C33.859 9.724 33.819 9.44 33.835 9.12H35.011ZM41.3841 15.12C40.8081 15.12 40.3001 15 39.8601 14.76C39.4281 14.512 39.0921 14.168 38.8521 13.728C38.6201 13.28 38.5041 12.76 38.5041 12.168V5.676H39.6801V12.24C39.6801 12.808 39.8361 13.26 40.1481 13.596C40.4681 13.932 40.8761 14.1 41.3721 14.1C41.8601 14.1 42.2601 13.936 42.5721 13.608C42.8921 13.28 43.0521 12.872 43.0521 12.384C43.0521 12.096 43.0161 11.852 42.9441 11.652C42.8801 11.444 42.7761 11.188 42.6321 10.884C42.4721 10.564 42.3521 10.28 42.2721 10.032C42.1921 9.784 42.1641 9.476 42.1881 9.108H43.3641C43.3561 9.388 43.3841 9.628 43.4481 9.828C43.5121 10.02 43.6161 10.268 43.7601 10.572C43.9201 10.884 44.0401 11.176 44.1201 11.448C44.2081 11.712 44.2521 12.04 44.2521 12.432C44.2521 12.92 44.1361 13.368 43.9041 13.776C43.6721 14.184 43.3401 14.512 42.9081 14.76C42.4761 15 41.9681 15.12 41.3841 15.12ZM48.6391 15.12C48.0311 15.12 47.4991 14.992 47.0431 14.736C46.5951 14.48 46.2511 14.124 46.0111 13.668C45.7711 13.204 45.6511 12.672 45.6511 12.072V7.668C45.6511 7.052 45.8351 6.548 46.2031 6.156C46.5791 5.764 47.0711 5.568 47.6791 5.568C48.0631 5.568 48.4071 5.652 48.7111 5.82C49.0231 5.988 49.2631 6.248 49.4311 6.6C49.5831 6.248 49.7951 5.992 50.0671 5.832C50.3391 5.664 50.6471 5.58 50.9911 5.58C51.2311 5.58 51.4391 5.596 51.6151 5.628V6.648C51.4871 6.624 51.3391 6.612 51.1711 6.612C50.8351 6.612 50.5631 6.716 50.3551 6.924C50.1551 7.124 50.0551 7.408 50.0551 7.776V8.184H48.8671V7.572C48.8671 7.276 48.7711 7.032 48.5791 6.84C48.3871 6.648 48.1471 6.552 47.8591 6.552C47.5551 6.552 47.3071 6.652 47.1151 6.852C46.9311 7.052 46.8391 7.336 46.8391 7.704L46.8271 9.912C47.0111 9.632 47.2711 9.408 47.6071 9.24C47.9511 9.072 48.3391 8.988 48.7711 8.988C49.3311 8.988 49.8271 9.12 50.2591 9.384C50.6911 9.64 51.0231 10 51.2551 10.464C51.4951 10.928 51.6151 11.464 51.6151 12.072C51.6151 12.672 51.4951 13.204 51.2551 13.668C51.0151 14.124 50.6671 14.48 50.2111 14.736C49.7631 14.992 49.2391 15.12 48.6391 15.12ZM48.6271 14.1C49.1551 14.1 49.5871 13.916 49.9231 13.548C50.2591 13.18 50.4271 12.688 50.4271 12.072C50.4271 11.44 50.2631 10.94 49.9351 10.572C49.6071 10.204 49.1711 10.02 48.6271 10.02C48.0911 10.02 47.6591 10.188 47.3311 10.524C47.0031 10.852 46.8391 11.312 46.8391 11.904V12.228C46.8391 12.78 47.0031 13.232 47.3311 13.584C47.6671 13.928 48.0991 14.1 48.6271 14.1ZM59.2622 8.988C59.7182 8.988 60.1302 9.104 60.4982 9.336C60.8662 9.56 61.1582 9.908 61.3742 10.38C61.5982 10.844 61.7102 11.42 61.7102 12.108C61.7102 12.628 61.6582 13.112 61.5542 13.56C61.4502 14.008 61.3022 14.488 61.1102 15H59.9342C60.1342 14.48 60.2782 14 60.3662 13.56C60.4622 13.12 60.5102 12.644 60.5102 12.132C60.5102 11.42 60.3862 10.888 60.1382 10.536C59.8902 10.184 59.5622 10.008 59.1542 10.008C58.7542 10.008 58.4382 10.152 58.2062 10.44C57.9822 10.728 57.8702 11.176 57.8702 11.784V13.548H56.6942V11.784C56.6942 11.176 56.5782 10.728 56.3462 10.44C56.1222 10.152 55.8142 10.008 55.4222 10.008C55.0062 10.008 54.6702 10.184 54.4142 10.536C54.1662 10.888 54.0422 11.416 54.0422 12.12C54.0422 12.624 54.0862 13.1 54.1742 13.548C54.2702 13.988 54.4222 14.472 54.6302 15H53.4542C53.2462 14.44 53.0942 13.896 52.9982 13.368C52.9102 12.84 52.8662 12.196 52.8662 11.436C52.8662 10.332 53.0422 9.464 53.3942 8.832C53.7462 8.192 54.1622 7.736 54.6422 7.464C55.1222 7.192 55.7222 6.944 56.4422 6.72C56.8182 6.592 57.1022 6.488 57.2942 6.408C57.4942 6.328 57.6702 6.224 57.8222 6.096C57.9742 5.968 58.0782 5.808 58.1342 5.616L59.3462 5.676C59.2982 6.068 59.1542 6.388 58.9142 6.636C58.6742 6.884 58.3942 7.076 58.0742 7.212C57.7542 7.348 57.3222 7.5 56.7782 7.668C56.2102 7.836 55.7502 7.996 55.3982 8.148C55.0462 8.3 54.7262 8.512 54.4382 8.784C54.1582 9.056 53.9662 9.412 53.8622 9.852C54.0462 9.54 54.2782 9.32 54.5582 9.192C54.8382 9.056 55.1342 8.988 55.4462 8.988C56.3582 8.988 56.9702 9.408 57.2822 10.248C57.6102 9.408 58.2702 8.988 59.2622 8.988ZM66.1243 9.12C66.1163 9.392 66.1843 9.624 66.3283 9.816C66.4723 10.008 66.6963 10.236 67.0003 10.5C67.2643 10.724 67.4763 10.928 67.6363 11.112C67.8043 11.296 67.9483 11.524 68.0683 11.796C68.1883 12.06 68.2483 12.372 68.2483 12.732C68.2483 13.228 68.1243 13.656 67.8763 14.016C67.6363 14.376 67.3083 14.652 66.8923 14.844C66.4843 15.028 66.0323 15.12 65.5363 15.12C65.0323 15.12 64.5723 15.016 64.1563 14.808C63.7483 14.6 63.4243 14.304 63.1843 13.92C62.9523 13.528 62.8363 13.08 62.8363 12.576C62.8363 12.336 62.8603 12.092 62.9083 11.844L64.0723 11.88C64.0323 12.104 64.0123 12.304 64.0123 12.48C64.0123 12.992 64.1523 13.396 64.4323 13.692C64.7123 13.98 65.0803 14.124 65.5363 14.124C65.9923 14.124 66.3603 14 66.6403 13.752C66.9283 13.504 67.0723 13.156 67.0723 12.708C67.0723 12.38 66.9883 12.108 66.8203 11.892C66.6603 11.676 66.4123 11.428 66.0763 11.148C65.8203 10.932 65.6123 10.744 65.4523 10.584C65.3003 10.416 65.1723 10.212 65.0683 9.972C64.9723 9.724 64.9323 9.44 64.9483 9.12H66.1243ZM75.0045 18.132C74.3325 18.132 73.7405 18.028 73.2285 17.82C72.7165 17.62 72.3205 17.332 72.0405 16.956C71.7605 16.58 71.6205 16.14 71.6205 15.636C71.6205 15.524 71.6245 15.436 71.6325 15.372L72.8085 15.408L72.7965 15.564C72.7965 16.036 73.0005 16.416 73.4085 16.704C73.8165 16.992 74.3485 17.136 75.0045 17.136C75.6765 17.136 76.1925 16.984 76.5525 16.68C76.9205 16.384 77.1045 15.972 77.1045 15.444C77.1045 15.012 76.9765 14.664 76.7205 14.4C76.4725 14.128 76.1165 13.988 75.6525 13.98H75.4245V12.984H75.8325C76.8325 12.984 77.3325 12.5 77.3325 11.532C77.3325 11.052 77.2085 10.68 76.9605 10.416C76.7205 10.144 76.4085 10.008 76.0245 10.008C75.6405 10.008 75.3285 10.144 75.0885 10.416C74.8485 10.68 74.7285 11.072 74.7285 11.592V11.88C74.7285 12.376 74.6125 12.816 74.3805 13.2C74.1485 13.584 73.8285 13.88 73.4205 14.088C73.0125 14.296 72.5605 14.4 72.0645 14.4C71.5445 14.4 71.0805 14.288 70.6725 14.064C70.2645 13.84 69.9445 13.524 69.7125 13.116C69.4885 12.708 69.3765 12.24 69.3765 11.712C69.3765 11.176 69.4925 10.704 69.7245 10.296C69.9565 9.88 70.2725 9.56 70.6725 9.336C71.0725 9.104 71.5165 8.988 72.0045 8.988C72.4845 8.988 72.9165 9.108 73.3005 9.348C73.6925 9.58 73.9645 9.908 74.1165 10.332C74.2605 9.908 74.5125 9.58 74.8725 9.348C75.2325 9.108 75.6445 8.988 76.1085 8.988C76.5325 8.988 76.9285 9.088 77.2965 9.288C77.6645 9.48 77.9565 9.76 78.1725 10.128C78.3965 10.496 78.5085 10.928 78.5085 11.424C78.5085 12 78.3685 12.476 78.0885 12.852C77.8085 13.22 77.4485 13.46 77.0085 13.572C77.3925 13.676 77.7005 13.904 77.9325 14.256C78.1645 14.608 78.2805 15.032 78.2805 15.528C78.2805 16.04 78.1525 16.492 77.8965 16.884C77.6485 17.276 77.2765 17.58 76.7805 17.796C76.2925 18.02 75.7005 18.132 75.0045 18.132ZM72.0525 13.404C72.5085 13.404 72.8725 13.248 73.1445 12.936C73.4245 12.624 73.5645 12.212 73.5645 11.7C73.5645 11.188 73.4245 10.776 73.1445 10.464C72.8645 10.152 72.4965 9.996 72.0405 9.996C71.5925 9.996 71.2285 10.152 70.9485 10.464C70.6765 10.776 70.5405 11.188 70.5405 11.7C70.5405 12.212 70.6765 12.624 70.9485 12.936C71.2285 13.248 71.5965 13.404 72.0525 13.404ZM80.2901 15C80.0981 14.512 79.9501 14.036 79.8461 13.572C79.7501 13.108 79.7021 12.616 79.7021 12.096C79.7021 11.416 79.8101 10.844 80.0261 10.38C80.2501 9.908 80.5461 9.56 80.9141 9.336C81.2821 9.104 81.6901 8.988 82.1381 8.988C82.5941 8.988 82.9941 9.088 83.3381 9.288C83.6901 9.488 83.9501 9.808 84.1181 10.248C84.2941 9.792 84.5541 9.468 84.8981 9.276C85.2501 9.084 85.6501 8.988 86.0981 8.988C86.5461 8.988 86.9541 9.104 87.3221 9.336C87.6901 9.56 87.9821 9.908 88.1981 10.38C88.4221 10.844 88.5341 11.42 88.5341 12.108C88.5341 12.636 88.4821 13.128 88.3781 13.584C88.2741 14.032 88.1261 14.504 87.9341 15H86.7701C86.9701 14.48 87.1141 14 87.2021 13.56C87.2981 13.12 87.3461 12.644 87.3461 12.132C87.3461 11.428 87.2221 10.9 86.9741 10.548C86.7261 10.188 86.3981 10.008 85.9901 10.008C85.5901 10.008 85.2741 10.152 85.0421 10.44C84.8181 10.728 84.7061 11.176 84.7061 11.784V13.548H83.5301V11.784C83.5301 11.168 83.4141 10.72 83.1821 10.44C82.9581 10.152 82.6461 10.008 82.2461 10.008C81.8381 10.008 81.5061 10.184 81.2501 10.536C81.0021 10.888 80.8781 11.416 80.8781 12.12C80.8781 12.624 80.9221 13.1 81.0101 13.548C81.1061 13.988 81.2581 14.472 81.4661 15H80.2901ZM95.8043 18.108C95.6603 17.116 94.8563 16.62 93.3923 16.62H90.7283V15.672H91.6763C91.0923 15.384 90.6283 14.928 90.2843 14.304C89.9483 13.68 89.7803 12.952 89.7803 12.12C89.7803 11.432 89.8883 10.852 90.1043 10.38C90.3283 9.908 90.6243 9.56 90.9923 9.336C91.3603 9.104 91.7683 8.988 92.2163 8.988C92.6883 8.988 93.1043 9.108 93.4643 9.348C93.8243 9.58 94.0763 9.908 94.2203 10.332C94.3723 9.908 94.6403 9.58 95.0243 9.348C95.4163 9.108 95.8563 8.988 96.3443 8.988C96.8403 8.988 97.2883 9.108 97.6883 9.348C98.0963 9.58 98.4163 9.912 98.6483 10.344C98.8803 10.768 98.9963 11.26 98.9963 11.82C98.9963 12.372 98.8803 12.86 98.6483 13.284C98.4163 13.708 98.0963 14.036 97.6883 14.268C97.2803 14.5 96.8163 14.616 96.2963 14.616C95.7843 14.616 95.3243 14.5 94.9163 14.268C94.5083 14.036 94.1883 13.712 93.9563 13.296C93.7243 12.872 93.6083 12.38 93.6083 11.82V11.592C93.6083 11.088 93.4883 10.7 93.2483 10.428C93.0163 10.148 92.7043 10.008 92.3123 10.008C91.9123 10.008 91.5883 10.188 91.3403 10.548C91.0923 10.9 90.9683 11.432 90.9683 12.144C90.9683 13.16 91.2323 13.972 91.7603 14.58C92.2963 15.18 93.0123 15.52 93.9083 15.6L94.2323 15.636C95.0723 15.716 95.7243 15.96 96.1883 16.368C96.6603 16.776 96.9283 17.34 96.9923 18.06L95.8043 18.108ZM96.2963 13.608C96.7523 13.608 97.1203 13.444 97.4003 13.116C97.6803 12.788 97.8203 12.352 97.8203 11.808C97.8203 11.264 97.6803 10.828 97.4003 10.5C97.1283 10.172 96.7603 10.008 96.2963 10.008C95.8403 10.008 95.4723 10.172 95.1923 10.5C94.9203 10.828 94.7843 11.264 94.7843 11.808C94.7843 12.352 94.9203 12.788 95.1923 13.116C95.4723 13.444 95.8403 13.608 96.2963 13.608Z" fill="#454857"/>
<rect x="116" width="200" height="24" rx="12" fill="white"/>
<path fill-rule="evenodd" clip-rule="evenodd" d="M129.479 16.9007C129.527 17.1 129.563 17.25 129.99 17.25L131.735 17.2465C132.161 17.2465 132.181 16.9509 132.208 16.5675C132.21 16.5374 132.212 16.5069 132.214 16.4759L132.495 13.0066L134.247 9.26008C134.072 9.10401 133.839 9.02833 133.606 9.05124C133.372 9.07415 133.159 9.19358 133.017 9.3808L132.144 10.9912L132.085 10.9615L132.417 7.35051C132.417 7.35051 131.36 6.70495 131.186 8.24188L131.017 9.86628L131.008 9.8318L131.008 9.83179C130.378 7.45079 130.369 7.41642 129.911 6.75131C129.911 6.75131 129.035 6.67171 129.192 7.75202L129.716 9.92839L129.807 9.99049L129.696 9.94326L127.531 10.1042L126.484 11.6525C126.484 11.6525 127.581 12.1852 127.997 11.1557C128.334 11.3942 128.767 11.4489 129.152 11.3017L129.542 12.2692L128.875 13.0906L127.96 12.8282C127.96 12.8282 127.749 11.6884 126.466 12.145L127.064 13.6496L128.047 14.533C128.282 15.2671 128.74 15.9094 129.356 16.37C129.356 16.37 129.41 16.6289 129.467 16.852C129.471 16.8685 129.475 16.8848 129.479 16.9007ZM124.336 13.4962C124.328 13.541 124.339 13.5873 124.367 13.6232V13.6223C124.405 13.6707 124.464 13.6982 124.525 13.6966C124.563 13.6957 124.599 13.6842 124.631 13.6634L125.926 12.8167C125.965 12.7936 125.992 12.7546 126 12.7097C126.009 12.6648 125.997 12.6186 125.968 12.5831C125.905 12.5038 125.791 12.4864 125.707 12.5429L124.412 13.3896C124.372 13.4125 124.345 13.4514 124.336 13.4962ZM123.967 11.9184C123.896 11.9361 123.822 11.9082 123.781 11.8483C123.74 11.7884 123.74 11.7091 123.781 11.6492C123.822 11.5893 123.896 11.5613 123.967 11.579H125.351C125.421 11.5613 125.495 11.5893 125.536 11.6492C125.578 11.7091 125.578 11.7884 125.536 11.8483C125.495 11.9082 125.421 11.9361 125.351 11.9184H123.967ZM124.412 10.1961L125.707 11.0437V11.0393C125.739 11.0587 125.777 11.0698 125.815 11.0717C125.873 11.0724 125.929 11.0471 125.967 11.0026C125.995 10.9664 126.007 10.9197 125.998 10.8744C125.99 10.8291 125.963 10.7895 125.924 10.7655L124.629 9.91879C124.544 9.86315 124.432 9.88051 124.367 9.95902C124.339 9.99544 124.328 10.0423 124.336 10.0876C124.345 10.1329 124.372 10.1724 124.412 10.1961Z" fill="#1BBA6B"/>
<path d="M141.212 15C141.02 14.512 140.872 14.04 140.768 13.584C140.672 13.128 140.624 12.644 140.624 12.132C140.624 11.476 140.74 10.912 140.972 10.44C141.212 9.968 141.544 9.608 141.968 9.36C142.392 9.112 142.88 8.988 143.432 8.988C143.992 8.988 144.484 9.112 144.908 9.36C145.332 9.608 145.66 9.968 145.892 10.44C146.132 10.912 146.252 11.476 146.252 12.132C146.252 12.636 146.2 13.116 146.096 13.572C146 14.02 145.856 14.496 145.664 15H144.5C144.7 14.472 144.844 13.992 144.932 13.56C145.02 13.128 145.064 12.668 145.064 12.18C145.064 11.5 144.92 10.972 144.632 10.596C144.344 10.212 143.944 10.02 143.432 10.02C142.92 10.02 142.52 10.212 142.232 10.596C141.944 10.972 141.8 11.5 141.8 12.18C141.8 12.66 141.844 13.12 141.932 13.56C142.028 14 142.176 14.48 142.376 15H141.212ZM153.515 18.108C153.371 17.116 152.567 16.62 151.103 16.62H148.439V15.672H149.387C148.803 15.384 148.339 14.928 147.995 14.304C147.659 13.68 147.491 12.952 147.491 12.12C147.491 11.432 147.599 10.852 147.815 10.38C148.039 9.908 148.335 9.56 148.703 9.336C149.071 9.104 149.479 8.988 149.927 8.988C150.399 8.988 150.815 9.108 151.175 9.348C151.535 9.58 151.787 9.908 151.931 10.332C152.083 9.908 152.351 9.58 152.735 9.348C153.127 9.108 153.567 8.988 154.055 8.988C154.551 8.988 154.999 9.108 155.399 9.348C155.807 9.58 156.127 9.912 156.359 10.344C156.591 10.768 156.707 11.26 156.707 11.82C156.707 12.372 156.591 12.86 156.359 13.284C156.127 13.708 155.807 14.036 155.399 14.268C154.991 14.5 154.527 14.616 154.007 14.616C153.495 14.616 153.035 14.5 152.627 14.268C152.219 14.036 151.899 13.712 151.667 13.296C151.435 12.872 151.319 12.38 151.319 11.82V11.592C151.319 11.088 151.199 10.7 150.959 10.428C150.727 10.148 150.415 10.008 150.023 10.008C149.623 10.008 149.299 10.188 149.051 10.548C148.803 10.9 148.679 11.432 148.679 12.144C148.679 13.16 148.943 13.972 149.471 14.58C150.007 15.18 150.723 15.52 151.619 15.6L151.943 15.636C152.783 15.716 153.435 15.96 153.899 16.368C154.371 16.776 154.639 17.34 154.703 18.06L153.515 18.108ZM154.007 13.608C154.463 13.608 154.831 13.444 155.111 13.116C155.391 12.788 155.531 12.352 155.531 11.808C155.531 11.264 155.391 10.828 155.111 10.5C154.839 10.172 154.471 10.008 154.007 10.008C153.551 10.008 153.183 10.172 152.903 10.5C152.631 10.828 152.495 11.264 152.495 11.808C152.495 12.352 152.631 12.788 152.903 13.116C153.183 13.444 153.551 13.608 154.007 13.608ZM158.544 15C158.352 14.512 158.204 14.04 158.1 13.584C158.004 13.128 157.956 12.644 157.956 12.132C157.956 11.476 158.072 10.912 158.304 10.44C158.544 9.968 158.876 9.608 159.3 9.36C159.724 9.112 160.212 8.988 160.764 8.988C161.324 8.988 161.816 9.112 162.24 9.36C162.664 9.608 162.992 9.968 163.224 10.44C163.464 10.912 163.584 11.476 163.584 12.132C163.584 12.636 163.532 13.116 163.428 13.572C163.332 14.02 163.188 14.496 162.996 15H161.832C162.032 14.472 162.176 13.992 162.264 13.56C162.352 13.128 162.396 12.668 162.396 12.18C162.396 11.5 162.252 10.972 161.964 10.596C161.676 10.212 161.276 10.02 160.764 10.02C160.252 10.02 159.852 10.212 159.564 10.596C159.276 10.972 159.132 11.5 159.132 12.18C159.132 12.66 159.176 13.12 159.264 13.56C159.36 14 159.508 14.48 159.708 15H158.544ZM168.003 9.12C167.995 9.392 168.063 9.624 168.207 9.816C168.351 10.008 168.575 10.236 168.879 10.5C169.143 10.724 169.355 10.928 169.515 11.112C169.683 11.296 169.827 11.524 169.947 11.796C170.067 12.06 170.127 12.372 170.127 12.732C170.127 13.228 170.003 13.656 169.755 14.016C169.515 14.376 169.187 14.652 168.771 14.844C168.363 15.028 167.911 15.12 167.415 15.12C166.911 15.12 166.451 15.016 166.035 14.808C165.627 14.6 165.303 14.304 165.063 13.92C164.831 13.528 164.715 13.08 164.715 12.576C164.715 12.336 164.739 12.092 164.787 11.844L165.951 11.88C165.911 12.104 165.891 12.304 165.891 12.48C165.891 12.992 166.031 13.396 166.311 13.692C166.591 13.98 166.959 14.124 167.415 14.124C167.871 14.124 168.239 14 168.519 13.752C168.807 13.504 168.951 13.156 168.951 12.708C168.951 12.38 168.867 12.108 168.699 11.892C168.539 11.676 168.291 11.428 167.955 11.148C167.699 10.932 167.491 10.744 167.331 10.584C167.179 10.416 167.051 10.212 166.947 9.972C166.851 9.724 166.811 9.44 166.827 9.12H168.003ZM179.307 18.108C179.163 17.052 178.155 16.524 176.283 16.524H172.491V15.576H173.499C172.827 15.28 172.295 14.82 171.903 14.196C171.511 13.572 171.315 12.828 171.315 11.964C171.315 11.316 171.427 10.772 171.651 10.332C171.883 9.884 172.187 9.552 172.563 9.336C172.939 9.112 173.347 9 173.787 9C174.187 9 174.551 9.096 174.879 9.288C175.207 9.48 175.455 9.804 175.623 10.26C175.791 9.812 176.039 9.492 176.367 9.3C176.703 9.1 177.067 9 177.459 9C177.843 9 178.207 9.096 178.551 9.288C178.895 9.48 179.147 9.804 179.307 10.26C179.475 9.804 179.723 9.48 180.051 9.288C180.387 9.096 180.759 9 181.167 9C181.615 9 182.019 9.112 182.379 9.336C182.747 9.56 183.039 9.908 183.255 10.38C183.479 10.852 183.591 11.448 183.591 12.168C183.591 12.912 183.467 13.692 183.219 14.508L182.055 14.448C182.287 13.72 182.403 12.96 182.403 12.168C182.403 11.448 182.283 10.912 182.043 10.56C181.803 10.2 181.491 10.02 181.107 10.02C180.747 10.02 180.451 10.16 180.219 10.44C179.987 10.72 179.871 11.144 179.871 11.712V13.596H178.695V11.544C178.695 11.024 178.579 10.64 178.347 10.392C178.115 10.144 177.819 10.02 177.459 10.02C177.091 10.02 176.791 10.144 176.559 10.392C176.335 10.64 176.223 11.024 176.223 11.544V13.596H175.047V11.712C175.047 11.144 174.931 10.72 174.699 10.44C174.475 10.16 174.187 10.02 173.835 10.02C173.459 10.02 173.143 10.192 172.887 10.536C172.631 10.88 172.503 11.392 172.503 12.072C172.503 12.8 172.655 13.416 172.959 13.92C173.263 14.424 173.675 14.804 174.195 15.06C174.715 15.316 175.299 15.46 175.947 15.492L176.979 15.528C178.043 15.568 178.875 15.808 179.475 16.248C180.083 16.688 180.427 17.292 180.507 18.06L179.307 18.108ZM187.743 18.18C187.159 18.18 186.647 18.064 186.207 17.832C185.767 17.6 185.427 17.276 185.187 16.86C184.947 16.444 184.827 15.972 184.827 15.444C184.827 15.1 184.879 14.76 184.983 14.424L186.135 14.484C186.055 14.804 186.015 15.076 186.015 15.3C186.015 15.868 186.171 16.316 186.483 16.644C186.803 16.98 187.227 17.148 187.755 17.148C188.267 17.148 188.679 16.98 188.991 16.644C189.311 16.316 189.471 15.848 189.471 15.24V11.088C189.471 10.728 189.375 10.452 189.183 10.26C188.999 10.068 188.755 9.972 188.451 9.972C188.147 9.972 187.899 10.068 187.707 10.26C187.523 10.452 187.431 10.728 187.431 11.088V12.876H186.243V11.268C186.243 10.868 186.147 10.576 185.955 10.392C185.771 10.2 185.503 10.104 185.151 10.104H184.635V9.06H185.307C186.067 9.06 186.587 9.38 186.867 10.02C187.035 9.668 187.271 9.408 187.575 9.24C187.887 9.072 188.235 8.988 188.619 8.988C189.227 8.988 189.715 9.184 190.083 9.576C190.459 9.968 190.647 10.472 190.647 11.088V15.252C190.647 16.156 190.387 16.868 189.867 17.388C189.347 17.916 188.639 18.18 187.743 18.18ZM198.442 8.988C198.898 8.988 199.31 9.104 199.678 9.336C200.046 9.56 200.338 9.908 200.554 10.38C200.778 10.844 200.89 11.42 200.89 12.108C200.89 12.628 200.838 13.112 200.734 13.56C200.63 14.008 200.482 14.488 200.29 15H199.114C199.314 14.48 199.458 14 199.546 13.56C199.642 13.12 199.69 12.644 199.69 12.132C199.69 11.42 199.566 10.888 199.318 10.536C199.07 10.184 198.742 10.008 198.334 10.008C197.934 10.008 197.618 10.152 197.386 10.44C197.162 10.728 197.05 11.176 197.05 11.784V13.548H195.874V11.784C195.874 11.176 195.758 10.728 195.526 10.44C195.302 10.152 194.994 10.008 194.602 10.008C194.186 10.008 193.85 10.184 193.594 10.536C193.346 10.888 193.222 11.416 193.222 12.12C193.222 12.624 193.266 13.1 193.354 13.548C193.45 13.988 193.602 14.472 193.81 15H192.634C192.426 14.44 192.274 13.896 192.178 13.368C192.09 12.84 192.046 12.196 192.046 11.436C192.046 10.332 192.222 9.464 192.574 8.832C192.926 8.192 193.342 7.736 193.822 7.464C194.302 7.192 194.902 6.944 195.622 6.72C195.998 6.592 196.282 6.488 196.474 6.408C196.674 6.328 196.85 6.224 197.002 6.096C197.154 5.968 197.258 5.808 197.314 5.616L198.526 5.676C198.478 6.068 198.334 6.388 198.094 6.636C197.854 6.884 197.574 7.076 197.254 7.212C196.934 7.348 196.502 7.5 195.958 7.668C195.39 7.836 194.93 7.996 194.578 8.148C194.226 8.3 193.906 8.512 193.618 8.784C193.338 9.056 193.146 9.412 193.042 9.852C193.226 9.54 193.458 9.32 193.738 9.192C194.018 9.056 194.314 8.988 194.626 8.988C195.538 8.988 196.15 9.408 196.462 10.248C196.79 9.408 197.45 8.988 198.442 8.988ZM207.924 15.12C207.324 15.12 206.8 14.992 206.352 14.736C205.904 14.48 205.56 14.124 205.32 13.668C205.08 13.204 204.96 12.672 204.96 12.072C204.96 11.464 205.076 10.928 205.308 10.464C205.548 10 205.88 9.64 206.304 9.384C206.736 9.12 207.232 8.988 207.792 8.988C208.224 8.988 208.612 9.072 208.956 9.24C209.3 9.408 209.56 9.632 209.736 9.912V8.316C209.736 7.74 209.568 7.304 209.232 7.008C208.904 6.704 208.468 6.552 207.924 6.552C207.404 6.552 206.98 6.696 206.652 6.984C206.332 7.264 206.172 7.616 206.172 8.04L204.984 8.004C204.984 7.54 205.112 7.12 205.368 6.744C205.624 6.368 205.976 6.076 206.424 5.868C206.872 5.66 207.368 5.556 207.912 5.556C208.48 5.556 208.992 5.672 209.448 5.904C209.904 6.128 210.26 6.448 210.516 6.864C210.78 7.28 210.912 7.764 210.912 8.316V12.072C210.912 12.672 210.792 13.204 210.552 13.668C210.312 14.124 209.964 14.48 209.508 14.736C209.06 14.992 208.532 15.12 207.924 15.12ZM207.936 14.1C208.472 14.1 208.904 13.928 209.232 13.584C209.568 13.232 209.736 12.78 209.736 12.228V11.904C209.736 11.312 209.572 10.852 209.244 10.524C208.916 10.188 208.48 10.02 207.936 10.02C207.392 10.02 206.956 10.204 206.628 10.572C206.308 10.94 206.148 11.44 206.148 12.072C206.148 12.688 206.312 13.18 206.64 13.548C206.976 13.916 207.408 14.1 207.936 14.1ZM218.343 18.108C218.199 17.116 217.395 16.62 215.931 16.62H213.267V15.672H214.215C213.631 15.384 213.167 14.928 212.823 14.304C212.487 13.68 212.319 12.952 212.319 12.12C212.319 11.432 212.427 10.852 212.643 10.38C212.867 9.908 213.163 9.56 213.531 9.336C213.899 9.104 214.307 8.988 214.755 8.988C215.227 8.988 215.643 9.108 216.003 9.348C216.363 9.58 216.615 9.908 216.759 10.332C216.911 9.908 217.179 9.58 217.563 9.348C217.955 9.108 218.395 8.988 218.883 8.988C219.379 8.988 219.827 9.108 220.227 9.348C220.635 9.58 220.955 9.912 221.187 10.344C221.419 10.768 221.535 11.26 221.535 11.82C221.535 12.372 221.419 12.86 221.187 13.284C220.955 13.708 220.635 14.036 220.227 14.268C219.819 14.5 219.355 14.616 218.835 14.616C218.323 14.616 217.863 14.5 217.455 14.268C217.047 14.036 216.727 13.712 216.495 13.296C216.263 12.872 216.147 12.38 216.147 11.82V11.592C216.147 11.088 216.027 10.7 215.787 10.428C215.555 10.148 215.243 10.008 214.851 10.008C214.451 10.008 214.127 10.188 213.879 10.548C213.631 10.9 213.507 11.432 213.507 12.144C213.507 13.16 213.771 13.972 214.299 14.58C214.835 15.18 215.551 15.52 216.447 15.6L216.771 15.636C217.611 15.716 218.263 15.96 218.727 16.368C219.199 16.776 219.467 17.34 219.531 18.06L218.343 18.108ZM218.835 13.608C219.291 13.608 219.659 13.444 219.939 13.116C220.219 12.788 220.359 12.352 220.359 11.808C220.359 11.264 220.219 10.828 219.939 10.5C219.667 10.172 219.299 10.008 218.835 10.008C218.379 10.008 218.011 10.172 217.731 10.5C217.459 10.828 217.323 11.264 217.323 11.808C217.323 12.352 217.459 12.788 217.731 13.116C218.011 13.444 218.379 13.608 218.835 13.608ZM225.269 18.156C224.685 18.156 224.161 18.032 223.697 17.784C223.233 17.536 222.869 17.18 222.605 16.716C222.341 16.252 222.209 15.716 222.209 15.108C222.209 14.524 222.329 14.012 222.569 13.572C222.817 13.132 223.153 12.784 223.577 12.528C224.009 12.264 224.501 12.104 225.053 12.048C225.885 11.968 226.301 11.584 226.301 10.896C226.301 10.608 226.205 10.38 226.013 10.212C225.821 10.044 225.549 9.96 225.197 9.96C224.853 9.968 224.585 10.056 224.393 10.224C224.209 10.392 224.101 10.636 224.069 10.956L222.869 10.908C222.925 10.34 223.157 9.88 223.565 9.528C223.973 9.168 224.517 8.988 225.197 8.988C225.653 8.988 226.053 9.068 226.397 9.228C226.741 9.388 227.005 9.604 227.189 9.876C227.381 10.148 227.477 10.448 227.477 10.776C227.477 11.152 227.401 11.468 227.249 11.724C227.097 11.98 226.857 12.188 226.529 12.348C227.097 12.548 227.537 12.892 227.849 13.38C228.161 13.868 228.317 14.444 228.317 15.108C228.317 15.716 228.181 16.252 227.909 16.716C227.645 17.18 227.281 17.536 226.817 17.784C226.361 18.032 225.845 18.156 225.269 18.156ZM225.269 17.148C225.813 17.148 226.257 16.964 226.601 16.596C226.953 16.228 227.129 15.732 227.129 15.108C227.129 14.484 226.953 13.988 226.601 13.62C226.257 13.252 225.813 13.068 225.269 13.068C224.717 13.068 224.265 13.252 223.913 13.62C223.569 13.98 223.397 14.476 223.397 15.108C223.397 15.74 223.569 16.236 223.913 16.596C224.265 16.964 224.717 17.148 225.269 17.148ZM229.853 15C229.661 14.512 229.513 14.036 229.409 13.572C229.313 13.108 229.265 12.616 229.265 12.096C229.265 11.416 229.373 10.844 229.589 10.38C229.813 9.908 230.109 9.56 230.477 9.336C230.845 9.104 231.253 8.988 231.701 8.988C232.157 8.988 232.557 9.088 232.901 9.288C233.253 9.488 233.513 9.808 233.681 10.248C233.857 9.792 234.117 9.468 234.461 9.276C234.813 9.084 235.213 8.988 235.661 8.988C236.109 8.988 236.517 9.104 236.885 9.336C237.253 9.56 237.545 9.908 237.761 10.38C237.985 10.844 238.097 11.42 238.097 12.108C238.097 12.636 238.045 13.128 237.941 13.584C237.837 14.032 237.689 14.504 237.497 15H236.333C236.533 14.48 236.677 14 236.765 13.56C236.861 13.12 236.909 12.644 236.909 12.132C236.909 11.428 236.785 10.9 236.537 10.548C236.289 10.188 235.961 10.008 235.553 10.008C235.153 10.008 234.837 10.152 234.605 10.44C234.381 10.728 234.269 11.176 234.269 11.784V13.548H233.093V11.784C233.093 11.168 232.977 10.72 232.745 10.44C232.521 10.152 232.209 10.008 231.809 10.008C231.401 10.008 231.069 10.184 230.813 10.536C230.565 10.888 230.441 11.416 230.441 12.12C230.441 12.624 230.485 13.1 230.573 13.548C230.669 13.988 230.821 14.472 231.029 15H229.853ZM242.307 15.12C241.707 15.12 241.183 14.992 240.735 14.736C240.287 14.48 239.943 14.124 239.703 13.668C239.463 13.204 239.343 12.672 239.343 12.072C239.343 11.464 239.459 10.928 239.691 10.464C239.931 10 240.263 9.64 240.687 9.384C241.119 9.12 241.615 8.988 242.175 8.988C242.607 8.988 242.995 9.072 243.339 9.24C243.683 9.408 243.943 9.632 244.119 9.912V8.316C244.119 7.74 243.951 7.304 243.615 7.008C243.287 6.704 242.851 6.552 242.307 6.552C241.787 6.552 241.363 6.696 241.035 6.984C240.715 7.264 240.555 7.616 240.555 8.04L239.367 8.004C239.367 7.54 239.495 7.12 239.751 6.744C240.007 6.368 240.359 6.076 240.807 5.868C241.255 5.66 241.751 5.556 242.295 5.556C242.863 5.556 243.375 5.672 243.831 5.904C244.287 6.128 244.643 6.448 244.899 6.864C245.163 7.28 245.295 7.764 245.295 8.316V12.072C245.295 12.672 245.175 13.204 244.935 13.668C244.695 14.124 244.347 14.48 243.891 14.736C243.443 14.992 242.915 15.12 242.307 15.12ZM242.319 14.1C242.855 14.1 243.287 13.928 243.615 13.584C243.951 13.232 244.119 12.78 244.119 12.228V11.904C244.119 11.312 243.955 10.852 243.627 10.524C243.299 10.188 242.863 10.02 242.319 10.02C241.775 10.02 241.339 10.204 241.011 10.572C240.691 10.94 240.531 11.44 240.531 12.072C240.531 12.688 240.695 13.18 241.023 13.548C241.359 13.916 241.791 14.1 242.319 14.1ZM249.683 9.12C249.675 9.392 249.743 9.624 249.887 9.816C250.031 10.008 250.255 10.236 250.559 10.5C250.823 10.724 251.035 10.928 251.195 11.112C251.363 11.296 251.507 11.524 251.627 11.796C251.747 12.06 251.807 12.372 251.807 12.732C251.807 13.228 251.683 13.656 251.435 14.016C251.195 14.376 250.867 14.652 250.451 14.844C250.043 15.028 249.591 15.12 249.095 15.12C248.591 15.12 248.131 15.016 247.715 14.808C247.307 14.6 246.983 14.304 246.743 13.92C246.511 13.528 246.395 13.08 246.395 12.576C246.395 12.336 246.419 12.092 246.467 11.844L247.631 11.88C247.591 12.104 247.571 12.304 247.571 12.48C247.571 12.992 247.711 13.396 247.991 13.692C248.271 13.98 248.639 14.124 249.095 14.124C249.551 14.124 249.919 14 250.199 13.752C250.487 13.504 250.631 13.156 250.631 12.708C250.631 12.38 250.547 12.108 250.379 11.892C250.219 11.676 249.971 11.428 249.635 11.148C249.379 10.932 249.171 10.744 249.011 10.584C248.859 10.416 248.731 10.212 248.627 9.972C248.531 9.724 248.491 9.44 248.507 9.12H249.683ZM259.391 8.988C259.847 8.988 260.259 9.104 260.627 9.336C260.995 9.56 261.287 9.908 261.503 10.38C261.727 10.844 261.839 11.42 261.839 12.108C261.839 12.628 261.787 13.112 261.683 13.56C261.579 14.008 261.431 14.488 261.239 15H260.063C260.263 14.48 260.407 14 260.495 13.56C260.591 13.12 260.639 12.644 260.639 12.132C260.639 11.42 260.515 10.888 260.267 10.536C260.019 10.184 259.691 10.008 259.283 10.008C258.883 10.008 258.567 10.152 258.335 10.44C258.111 10.728 257.999 11.176 257.999 11.784V13.548H256.823V11.784C256.823 11.176 256.707 10.728 256.475 10.44C256.251 10.152 255.943 10.008 255.551 10.008C255.135 10.008 254.799 10.184 254.543 10.536C254.295 10.888 254.171 11.416 254.171 12.12C254.171 12.624 254.215 13.1 254.303 13.548C254.399 13.988 254.551 14.472 254.759 15H253.583C253.375 14.44 253.223 13.896 253.127 13.368C253.039 12.84 252.995 12.196 252.995 11.436C252.995 10.332 253.171 9.464 253.523 8.832C253.875 8.192 254.291 7.736 254.771 7.464C255.251 7.192 255.851 6.944 256.571 6.72C256.947 6.592 257.231 6.488 257.423 6.408C257.623 6.328 257.799 6.224 257.951 6.096C258.103 5.968 258.207 5.808 258.263 5.616L259.475 5.676C259.427 6.068 259.283 6.388 259.043 6.636C258.803 6.884 258.523 7.076 258.203 7.212C257.883 7.348 257.451 7.5 256.907 7.668C256.339 7.836 255.879 7.996 255.527 8.148C255.175 8.3 254.855 8.512 254.567 8.784C254.287 9.056 254.095 9.412 253.991 9.852C254.175 9.54 254.407 9.32 254.687 9.192C254.967 9.056 255.263 8.988 255.575 8.988C256.487 8.988 257.099 9.408 257.411 10.248C257.739 9.408 258.399 8.988 259.391 8.988ZM265.835 18.18C265.259 18.18 264.751 18.064 264.311 17.832C263.871 17.6 263.531 17.276 263.291 16.86C263.051 16.444 262.931 15.972 262.931 15.444C262.931 15.108 262.979 14.768 263.075 14.424L264.227 14.484C264.155 14.772 264.119 15.044 264.119 15.3C264.119 15.868 264.275 16.316 264.587 16.644C264.907 16.98 265.327 17.148 265.847 17.148C266.367 17.148 266.783 16.98 267.095 16.644C267.415 16.316 267.575 15.848 267.575 15.24V11.76C267.567 11.176 267.407 10.736 267.095 10.44C266.791 10.144 266.407 9.996 265.943 9.996C265.455 9.996 265.067 10.14 264.779 10.428C264.499 10.716 264.359 11.108 264.359 11.604C264.359 11.756 264.379 11.96 264.419 12.216L263.231 12.264C263.183 12 263.159 11.752 263.159 11.52C263.159 11.016 263.279 10.572 263.519 10.188C263.759 9.804 264.087 9.508 264.503 9.3C264.927 9.092 265.399 8.988 265.919 8.988C266.447 8.988 266.927 9.1 267.359 9.324C267.791 9.548 268.131 9.872 268.379 10.296C268.627 10.712 268.751 11.204 268.751 11.772V15.252C268.751 16.156 268.487 16.868 267.959 17.388C267.439 17.916 266.731 18.18 265.835 18.18ZM270.728 15C270.536 14.512 270.388 14.036 270.284 13.572C270.188 13.108 270.14 12.616 270.14 12.096C270.14 11.416 270.248 10.844 270.464 10.38C270.688 9.908 270.984 9.56 271.352 9.336C271.72 9.104 272.128 8.988 272.576 8.988C273.032 8.988 273.432 9.088 273.776 9.288C274.128 9.488 274.388 9.808 274.556 10.248C274.732 9.792 274.992 9.468 275.336 9.276C275.688 9.084 276.088 8.988 276.536 8.988C276.984 8.988 277.392 9.104 277.76 9.336C278.128 9.56 278.42 9.908 278.636 10.38C278.86 10.844 278.972 11.42 278.972 12.108C278.972 12.636 278.92 13.128 278.816 13.584C278.712 14.032 278.564 14.504 278.372 15H277.208C277.408 14.48 277.552 14 277.64 13.56C277.736 13.12 277.784 12.644 277.784 12.132C277.784 11.428 277.66 10.9 277.412 10.548C277.164 10.188 276.836 10.008 276.428 10.008C276.028 10.008 275.712 10.152 275.48 10.44C275.256 10.728 275.144 11.176 275.144 11.784V13.548H273.968V11.784C273.968 11.168 273.852 10.72 273.62 10.44C273.396 10.152 273.084 10.008 272.684 10.008C272.276 10.008 271.944 10.184 271.688 10.536C271.44 10.888 271.316 11.416 271.316 12.12C271.316 12.624 271.36 13.1 271.448 13.548C271.544 13.988 271.696 14.472 271.904 15H270.728ZM284.022 9.084C284.71 9.228 285.266 9.568 285.69 10.104C286.114 10.632 286.326 11.288 286.326 12.072C286.326 12.68 286.19 13.216 285.918 13.68C285.654 14.144 285.29 14.5 284.826 14.748C284.362 14.996 283.842 15.12 283.266 15.12C282.69 15.12 282.17 14.996 281.706 14.748C281.242 14.5 280.878 14.144 280.614 13.68C280.35 13.216 280.218 12.68 280.218 12.072C280.218 11.512 280.326 11.016 280.542 10.584C280.766 10.144 281.07 9.792 281.454 9.528C281.846 9.264 282.29 9.1 282.786 9.036V8.052C282.786 7.868 282.746 7.72 282.666 7.608C282.594 7.488 282.478 7.352 282.318 7.2C282.094 6.992 281.926 6.784 281.814 6.576C281.702 6.368 281.658 6.068 281.682 5.676H282.894C282.886 5.908 282.926 6.096 283.014 6.24C283.102 6.384 283.238 6.544 283.422 6.72C283.614 6.904 283.762 7.084 283.866 7.26C283.97 7.428 284.022 7.66 284.022 7.956V9.084ZM283.266 14.1C283.81 14.1 284.258 13.916 284.61 13.548C284.962 13.18 285.138 12.688 285.138 12.072C285.138 11.448 284.962 10.952 284.61 10.584C284.258 10.208 283.81 10.02 283.266 10.02C282.722 10.02 282.274 10.204 281.922 10.572C281.57 10.94 281.394 11.44 281.394 12.072C281.394 12.696 281.57 13.192 281.922 13.56C282.274 13.92 282.722 14.1 283.266 14.1ZM290.745 9.12C290.737 9.392 290.805 9.624 290.949 9.816C291.093 10.008 291.317 10.236 291.621 10.5C291.885 10.724 292.097 10.928 292.257 11.112C292.425 11.296 292.569 11.524 292.689 11.796C292.809 12.06 292.869 12.372 292.869 12.732C292.869 13.228 292.745 13.656 292.497 14.016C292.257 14.376 291.929 14.652 291.513 14.844C291.105 15.028 290.653 15.12 290.157 15.12C289.653 15.12 289.193 15.016 288.777 14.808C288.369 14.6 288.045 14.304 287.805 13.92C287.573 13.528 287.457 13.08 287.457 12.576C287.457 12.336 287.481 12.092 287.529 11.844L288.693 11.88C288.653 12.104 288.633 12.304 288.633 12.48C288.633 12.992 288.773 13.396 289.053 13.692C289.333 13.98 289.701 14.124 290.157 14.124C290.613 14.124 290.981 14 291.261 13.752C291.549 13.504 291.693 13.156 291.693 12.708C291.693 12.38 291.609 12.108 291.441 11.892C291.281 11.676 291.033 11.428 290.697 11.148C290.441 10.932 290.233 10.744 290.073 10.584C289.921 10.416 289.793 10.212 289.689 9.972C289.593 9.724 289.553 9.44 289.569 9.12H290.745ZM297.034 15.12C296.434 15.12 295.906 14.992 295.45 14.736C295.002 14.48 294.658 14.124 294.418 13.668C294.178 13.204 294.058 12.672 294.058 12.072C294.058 11.464 294.174 10.928 294.406 10.464C294.646 10 294.982 9.64 295.414 9.384C295.846 9.12 296.342 8.988 296.902 8.988C297.334 8.988 297.718 9.072 298.054 9.24C298.398 9.408 298.662 9.632 298.846 9.912L298.834 7.704C298.834 7.336 298.738 7.052 298.546 6.852C298.362 6.652 298.118 6.552 297.814 6.552C297.534 6.552 297.294 6.648 297.094 6.84C296.902 7.032 296.806 7.276 296.806 7.572V8.184H295.618V7.776C295.618 7.408 295.514 7.124 295.306 6.924C295.106 6.716 294.838 6.612 294.502 6.612C294.342 6.612 294.194 6.624 294.058 6.648V5.628C294.234 5.596 294.442 5.58 294.682 5.58C295.026 5.58 295.334 5.664 295.606 5.832C295.878 5.992 296.09 6.248 296.242 6.6C296.41 6.248 296.646 5.988 296.95 5.82C297.262 5.652 297.61 5.568 297.994 5.568C298.602 5.568 299.09 5.764 299.458 6.156C299.834 6.548 300.022 7.052 300.022 7.668V12.072C300.022 12.672 299.902 13.204 299.662 13.668C299.422 14.124 299.074 14.48 298.618 14.736C298.17 14.992 297.642 15.12 297.034 15.12ZM297.046 14.1C297.574 14.1 298.002 13.928 298.33 13.584C298.666 13.232 298.834 12.78 298.834 12.228V11.904C298.834 11.312 298.67 10.852 298.342 10.524C298.014 10.188 297.582 10.02 297.046 10.02C296.502 10.02 296.066 10.204 295.738 10.572C295.41 10.94 295.246 11.44 295.246 12.072C295.246 12.688 295.414 13.18 295.75 13.548C296.086 13.916 296.518 14.1 297.046 14.1ZM302.017 15C301.825 14.512 301.677 14.04 301.573 13.584C301.477 13.128 301.429 12.644 301.429 12.132C301.429 11.476 301.545 10.912 301.777 10.44C302.017 9.968 302.349 9.608 302.773 9.36C303.197 9.112 303.685 8.988 304.237 8.988C304.797 8.988 305.289 9.112 305.713 9.36C306.137 9.608 306.465 9.968 306.697 10.44C306.937 10.912 307.057 11.476 307.057 12.132C307.057 12.636 307.005 13.116 306.901 13.572C306.805 14.02 306.661 14.496 306.469 15H305.305C305.505 14.472 305.649 13.992 305.737 13.56C305.825 13.128 305.869 12.668 305.869 12.18C305.869 11.5 305.725 10.972 305.437 10.596C305.149 10.212 304.749 10.02 304.237 10.02C303.725 10.02 303.325 10.212 303.037 10.596C302.749 10.972 302.605 11.5 302.605 12.18C302.605 12.66 302.649 13.12 302.737 13.56C302.833 14 302.981 14.48 303.181 15H302.017Z" fill="#454857"/>
<rect x="324" width="134" height="24" rx="12" fill="white"/>
<path fill-rule="evenodd" clip-rule="evenodd" d="M337.53 6.09942C337.238 5.80023 336.763 5.80019 336.47 6.09933L334.97 7.63046L334.908 7.70263C334.679 8.00317 334.7 8.43775 334.97 8.71392L336.47 10.245L336.54 10.3088C336.835 10.5424 337.26 10.5211 337.53 10.245L337.593 10.1728C337.822 9.87225 337.801 9.43771 337.53 9.16158L337.326 8.95251C339.244 9.12104 340.75 10.7644 340.75 12.7656C340.75 14.8787 339.071 16.5929 337 16.5929C334.929 16.5929 333.25 14.8787 333.25 12.7656C333.25 11.7516 333.468 11.1838 334.017 10.5282C334.286 10.2064 334.248 9.7229 333.933 9.44817C333.618 9.17343 333.145 9.21154 332.876 9.53329C332.103 10.4581 331.75 11.3748 331.75 12.7656C331.75 15.7251 334.101 18.125 337 18.125C339.899 18.125 342.25 15.7251 342.25 12.7656C342.25 9.90985 340.061 7.57513 337.303 7.41492L337.53 7.18279L337.593 7.11063C337.821 6.81013 337.801 6.37559 337.53 6.09942ZM335.5 11.8469C335.5 11.5086 335.774 11.2344 336.112 11.2344H337.887C338.226 11.2344 338.5 11.5086 338.5 11.8469C338.5 12.1851 338.226 12.4594 337.887 12.4594H336.112C335.774 12.4594 335.5 12.1851 335.5 11.8469ZM336.112 13.1484C335.774 13.1484 335.5 13.4227 335.5 13.7609C335.5 14.0992 335.774 14.3734 336.112 14.3734H337.887C338.226 14.3734 338.5 14.0992 338.5 13.7609C338.5 13.4227 338.226 13.1484 337.887 13.1484H336.112Z" fill="#11A6DA"/>
<path d="M351.72 15.12C351.144 15.12 350.636 15 350.196 14.76C349.764 14.512 349.428 14.168 349.188 13.728C348.956 13.28 348.84 12.76 348.84 12.168V5.676H350.016V12.24C350.016 12.808 350.172 13.26 350.484 13.596C350.804 13.932 351.212 14.1 351.708 14.1C352.196 14.1 352.596 13.936 352.908 13.608C353.228 13.28 353.388 12.872 353.388 12.384C353.388 12.096 353.352 11.852 353.28 11.652C353.216 11.444 353.112 11.188 352.968 10.884C352.808 10.564 352.688 10.28 352.608 10.032C352.528 9.784 352.5 9.476 352.524 9.108H353.7C353.692 9.388 353.72 9.628 353.784 9.828C353.848 10.02 353.952 10.268 354.096 10.572C354.256 10.884 354.376 11.176 354.456 11.448C354.544 11.712 354.588 12.04 354.588 12.432C354.588 12.92 354.472 13.368 354.24 13.776C354.008 14.184 353.676 14.512 353.244 14.76C352.812 15 352.304 15.12 351.72 15.12ZM358.501 18.18C357.917 18.18 357.405 18.064 356.965 17.832C356.525 17.6 356.185 17.276 355.945 16.86C355.705 16.444 355.585 15.972 355.585 15.444C355.585 15.1 355.637 14.76 355.741 14.424L356.893 14.484C356.813 14.804 356.773 15.076 356.773 15.3C356.773 15.868 356.929 16.316 357.241 16.644C357.561 16.98 357.985 17.148 358.513 17.148C359.025 17.148 359.437 16.98 359.749 16.644C360.069 16.316 360.229 15.848 360.229 15.24V11.088C360.229 10.728 360.133 10.452 359.941 10.26C359.757 10.068 359.513 9.972 359.209 9.972C358.905 9.972 358.657 10.068 358.465 10.26C358.281 10.452 358.189 10.728 358.189 11.088V12.876H357.001V11.268C357.001 10.868 356.905 10.576 356.713 10.392C356.529 10.2 356.261 10.104 355.909 10.104H355.393V9.06H356.065C356.825 9.06 357.345 9.38 357.625 10.02C357.793 9.668 358.029 9.408 358.333 9.24C358.645 9.072 358.993 8.988 359.377 8.988C359.985 8.988 360.473 9.184 360.841 9.576C361.217 9.968 361.405 10.472 361.405 11.088V15.252C361.405 16.156 361.145 16.868 360.625 17.388C360.105 17.916 359.397 18.18 358.501 18.18ZM368.372 18.132C367.7 18.132 367.108 18.028 366.596 17.82C366.084 17.62 365.688 17.332 365.408 16.956C365.128 16.58 364.988 16.14 364.988 15.636C364.988 15.524 364.992 15.436 365 15.372L366.176 15.408L366.164 15.564C366.164 16.036 366.368 16.416 366.776 16.704C367.184 16.992 367.716 17.136 368.372 17.136C369.044 17.136 369.56 16.984 369.92 16.68C370.288 16.384 370.472 15.972 370.472 15.444C370.472 15.012 370.344 14.664 370.088 14.4C369.84 14.128 369.484 13.988 369.02 13.98H368.792V12.984H369.2C370.2 12.984 370.7 12.5 370.7 11.532C370.7 11.052 370.576 10.68 370.328 10.416C370.088 10.144 369.776 10.008 369.392 10.008C369.008 10.008 368.696 10.144 368.456 10.416C368.216 10.68 368.096 11.072 368.096 11.592V11.88C368.096 12.376 367.98 12.816 367.748 13.2C367.516 13.584 367.196 13.88 366.788 14.088C366.38 14.296 365.928 14.4 365.432 14.4C364.912 14.4 364.448 14.288 364.04 14.064C363.632 13.84 363.312 13.524 363.08 13.116C362.856 12.708 362.744 12.24 362.744 11.712C362.744 11.176 362.86 10.704 363.092 10.296C363.324 9.88 363.64 9.56 364.04 9.336C364.44 9.104 364.884 8.988 365.372 8.988C365.852 8.988 366.284 9.108 366.668 9.348C367.06 9.58 367.332 9.908 367.484 10.332C367.628 9.908 367.88 9.58 368.24 9.348C368.6 9.108 369.012 8.988 369.476 8.988C369.9 8.988 370.296 9.088 370.664 9.288C371.032 9.48 371.324 9.76 371.54 10.128C371.764 10.496 371.876 10.928 371.876 11.424C371.876 12 371.736 12.476 371.456 12.852C371.176 13.22 370.816 13.46 370.376 13.572C370.76 13.676 371.068 13.904 371.3 14.256C371.532 14.608 371.648 15.032 371.648 15.528C371.648 16.04 371.52 16.492 371.264 16.884C371.016 17.276 370.644 17.58 370.148 17.796C369.66 18.02 369.068 18.132 368.372 18.132ZM365.42 13.404C365.876 13.404 366.24 13.248 366.512 12.936C366.792 12.624 366.932 12.212 366.932 11.7C366.932 11.188 366.792 10.776 366.512 10.464C366.232 10.152 365.864 9.996 365.408 9.996C364.96 9.996 364.596 10.152 364.316 10.464C364.044 10.776 363.908 11.188 363.908 11.7C363.908 12.212 364.044 12.624 364.316 12.936C364.596 13.248 364.964 13.404 365.42 13.404ZM375.865 15.12C375.329 15.12 374.849 14.996 374.425 14.748C374.001 14.5 373.669 14.148 373.429 13.692C373.189 13.228 373.069 12.688 373.069 12.072C373.069 11.448 373.189 10.904 373.429 10.44C373.669 9.968 373.997 9.608 374.413 9.36C374.837 9.112 375.309 8.988 375.829 8.988C376.325 8.988 376.777 9.116 377.185 9.372C377.593 9.62 377.877 9.96 378.037 10.392C378.189 9.944 378.449 9.6 378.817 9.36C379.185 9.112 379.601 8.988 380.065 8.988C380.513 8.988 380.921 9.104 381.289 9.336C381.657 9.56 381.949 9.908 382.165 10.38C382.389 10.844 382.501 11.42 382.501 12.108C382.501 12.636 382.449 13.128 382.345 13.584C382.241 14.032 382.093 14.504 381.901 15H380.737C380.937 14.48 381.081 14 381.169 13.56C381.265 13.12 381.313 12.644 381.313 12.132C381.313 11.428 381.189 10.9 380.941 10.548C380.693 10.188 380.373 10.008 379.981 10.008C379.589 10.008 379.273 10.16 379.033 10.464C378.793 10.768 378.673 11.22 378.673 11.82V12.072C378.673 12.696 378.553 13.24 378.313 13.704C378.073 14.16 377.741 14.512 377.317 14.76C376.893 15 376.409 15.12 375.865 15.12ZM375.865 14.112C376.361 14.112 376.757 13.928 377.053 13.56C377.349 13.192 377.497 12.696 377.497 12.072C377.497 11.432 377.349 10.928 377.053 10.56C376.757 10.192 376.361 10.008 375.865 10.008C375.377 10.008 374.985 10.192 374.689 10.56C374.393 10.928 374.245 11.432 374.245 12.072C374.245 12.704 374.393 13.204 374.689 13.572C374.993 13.932 375.385 14.112 375.865 14.112ZM386.925 9.12C386.917 9.392 386.985 9.624 387.129 9.816C387.273 10.008 387.497 10.236 387.801 10.5C388.065 10.724 388.277 10.928 388.437 11.112C388.605 11.296 388.749 11.524 388.869 11.796C388.989 12.06 389.049 12.372 389.049 12.732C389.049 13.228 388.925 13.656 388.677 14.016C388.437 14.376 388.109 14.652 387.693 14.844C387.285 15.028 386.833 15.12 386.337 15.12C385.833 15.12 385.373 15.016 384.957 14.808C384.549 14.6 384.225 14.304 383.985 13.92C383.753 13.528 383.637 13.08 383.637 12.576C383.637 12.336 383.661 12.092 383.709 11.844L384.873 11.88C384.833 12.104 384.813 12.304 384.813 12.48C384.813 12.992 384.953 13.396 385.233 13.692C385.513 13.98 385.881 14.124 386.337 14.124C386.793 14.124 387.161 14 387.441 13.752C387.729 13.504 387.873 13.156 387.873 12.708C387.873 12.38 387.789 12.108 387.621 11.892C387.461 11.676 387.213 11.428 386.877 11.148C386.621 10.932 386.413 10.744 386.253 10.584C386.101 10.416 385.973 10.212 385.869 9.972C385.773 9.724 385.733 9.44 385.749 9.12H386.925ZM393.661 15C393.469 14.512 393.321 14.04 393.217 13.584C393.121 13.128 393.073 12.644 393.073 12.132C393.073 11.476 393.189 10.912 393.421 10.44C393.661 9.968 393.993 9.608 394.417 9.36C394.841 9.112 395.329 8.988 395.881 8.988C396.441 8.988 396.933 9.112 397.357 9.36C397.781 9.608 398.109 9.968 398.341 10.44C398.581 10.912 398.701 11.476 398.701 12.132C398.701 12.636 398.649 13.116 398.545 13.572C398.449 14.02 398.305 14.496 398.113 15H396.949C397.149 14.472 397.293 13.992 397.381 13.56C397.469 13.128 397.513 12.668 397.513 12.18C397.513 11.5 397.369 10.972 397.081 10.596C396.793 10.212 396.393 10.02 395.881 10.02C395.369 10.02 394.969 10.212 394.681 10.596C394.393 10.972 394.249 11.5 394.249 12.18C394.249 12.66 394.293 13.12 394.381 13.56C394.477 14 394.625 14.48 394.825 15H393.661ZM403.036 15.12C402.46 15.12 401.952 15 401.512 14.76C401.08 14.512 400.744 14.168 400.504 13.728C400.272 13.28 400.156 12.76 400.156 12.168V5.676H401.332V12.24C401.332 12.808 401.488 13.26 401.8 13.596C402.12 13.932 402.528 14.1 403.024 14.1C403.512 14.1 403.912 13.936 404.224 13.608C404.544 13.28 404.704 12.872 404.704 12.384C404.704 12.096 404.668 11.852 404.596 11.652C404.532 11.444 404.428 11.188 404.284 10.884C404.124 10.564 404.004 10.28 403.924 10.032C403.844 9.784 403.816 9.476 403.84 9.108H405.016C405.008 9.388 405.036 9.628 405.1 9.828C405.164 10.02 405.268 10.268 405.412 10.572C405.572 10.884 405.692 11.176 405.772 11.448C405.86 11.712 405.904 12.04 405.904 12.432C405.904 12.92 405.788 13.368 405.556 13.776C405.324 14.184 404.992 14.512 404.56 14.76C404.128 15 403.62 15.12 403.036 15.12ZM411.911 9.084C412.615 9.164 413.243 9.392 413.795 9.768C414.355 10.136 414.795 10.644 415.115 11.292C415.435 11.94 415.595 12.704 415.595 13.584C415.595 14.544 415.407 15.364 415.031 16.044C414.655 16.724 414.143 17.24 413.495 17.592C412.847 17.944 412.127 18.12 411.335 18.12C410.535 18.12 409.807 17.944 409.151 17.592C408.503 17.24 407.987 16.724 407.603 16.044C407.227 15.364 407.039 14.544 407.039 13.584C407.039 12.704 407.199 11.94 407.519 11.292C407.839 10.644 408.279 10.136 408.839 9.768C409.399 9.392 410.035 9.164 410.747 9.084V7.62H411.911V9.084ZM411.335 17.1C411.911 17.1 412.431 16.968 412.895 16.704C413.359 16.44 413.727 16.044 413.999 15.516C414.279 14.988 414.419 14.344 414.419 13.584C414.419 12.528 414.175 11.704 413.687 11.112C413.199 10.512 412.567 10.164 411.791 10.068C411.871 10.372 411.911 10.672 411.911 10.968V13.74H410.747V10.968C410.747 10.672 410.787 10.372 410.867 10.068C410.075 10.172 409.435 10.52 408.947 11.112C408.459 11.704 408.215 12.528 408.215 13.584C408.215 14.344 408.351 14.988 408.623 15.516C408.903 16.044 409.279 16.44 409.751 16.704C410.223 16.968 410.751 17.1 411.335 17.1ZM417.321 15C417.129 14.512 416.981 14.036 416.877 13.572C416.781 13.108 416.733 12.616 416.733 12.096C416.733 11.416 416.841 10.844 417.057 10.38C417.281 9.908 417.577 9.56 417.945 9.336C418.313 9.104 418.721 8.988 419.169 8.988C419.625 8.988 420.025 9.088 420.369 9.288C420.721 9.488 420.981 9.808 421.149 10.248C421.325 9.792 421.585 9.468 421.929 9.276C422.281 9.084 422.681 8.988 423.129 8.988C423.577 8.988 423.985 9.104 424.353 9.336C424.721 9.56 425.013 9.908 425.229 10.38C425.453 10.844 425.565 11.42 425.565 12.108C425.565 12.636 425.513 13.128 425.409 13.584C425.305 14.032 425.157 14.504 424.965 15H423.801C424.001 14.48 424.145 14 424.233 13.56C424.329 13.12 424.377 12.644 424.377 12.132C424.377 11.428 424.253 10.9 424.005 10.548C423.757 10.188 423.429 10.008 423.021 10.008C422.621 10.008 422.305 10.152 422.073 10.44C421.849 10.728 421.737 11.176 421.737 11.784V13.548H420.561V11.784C420.561 11.168 420.445 10.72 420.213 10.44C419.989 10.152 419.677 10.008 419.277 10.008C418.869 10.008 418.537 10.184 418.281 10.536C418.033 10.888 417.909 11.416 417.909 12.12C417.909 12.624 417.953 13.1 418.041 13.548C418.137 13.988 418.289 14.472 418.497 15H417.321ZM433.208 8.988C433.664 8.988 434.076 9.104 434.444 9.336C434.812 9.56 435.104 9.908 435.32 10.38C435.544 10.844 435.656 11.42 435.656 12.108C435.656 12.628 435.604 13.112 435.5 13.56C435.396 14.008 435.248 14.488 435.056 15H433.88C434.08 14.48 434.224 14 434.312 13.56C434.408 13.12 434.456 12.644 434.456 12.132C434.456 11.42 434.332 10.888 434.084 10.536C433.836 10.184 433.508 10.008 433.1 10.008C432.7 10.008 432.384 10.152 432.152 10.44C431.928 10.728 431.816 11.176 431.816 11.784V13.548H430.64V11.784C430.64 11.176 430.524 10.728 430.292 10.44C430.068 10.152 429.76 10.008 429.368 10.008C428.952 10.008 428.616 10.184 428.36 10.536C428.112 10.888 427.988 11.416 427.988 12.12C427.988 12.624 428.032 13.1 428.12 13.548C428.216 13.988 428.368 14.472 428.576 15H427.4C427.192 14.44 427.04 13.896 426.944 13.368C426.856 12.84 426.812 12.196 426.812 11.436C426.812 10.332 426.988 9.464 427.34 8.832C427.692 8.192 428.108 7.736 428.588 7.464C429.068 7.192 429.668 6.944 430.388 6.72C430.764 6.592 431.048 6.488 431.24 6.408C431.44 6.328 431.616 6.224 431.768 6.096C431.92 5.968 432.024 5.808 432.08 5.616L433.292 5.676C433.244 6.068 433.1 6.388 432.86 6.636C432.62 6.884 432.34 7.076 432.02 7.212C431.7 7.348 431.268 7.5 430.724 7.668C430.156 7.836 429.696 7.996 429.344 8.148C428.992 8.3 428.672 8.512 428.384 8.784C428.104 9.056 427.912 9.412 427.808 9.852C427.992 9.54 428.224 9.32 428.504 9.192C428.784 9.056 429.08 8.988 429.392 8.988C430.304 8.988 430.916 9.408 431.228 10.248C431.556 9.408 432.216 8.988 433.208 8.988ZM437.478 15C437.286 14.512 437.138 14.04 437.034 13.584C436.938 13.128 436.89 12.644 436.89 12.132C436.89 11.476 437.006 10.912 437.238 10.44C437.478 9.968 437.81 9.608 438.234 9.36C438.658 9.112 439.146 8.988 439.698 8.988C440.258 8.988 440.75 9.112 441.174 9.36C441.598 9.608 441.926 9.968 442.158 10.44C442.398 10.912 442.518 11.476 442.518 12.132C442.518 12.636 442.466 13.116 442.362 13.572C442.266 14.02 442.122 14.496 441.93 15H440.766C440.966 14.472 441.11 13.992 441.198 13.56C441.286 13.128 441.33 12.668 441.33 12.18C441.33 11.5 441.186 10.972 440.898 10.596C440.61 10.212 440.21 10.02 439.698 10.02C439.186 10.02 438.786 10.212 438.498 10.596C438.21 10.972 438.066 11.5 438.066 12.18C438.066 12.66 438.11 13.12 438.198 13.56C438.294 14 438.442 14.48 438.642 15H437.478ZM446.937 9.12C446.929 9.392 446.997 9.624 447.141 9.816C447.285 10.008 447.509 10.236 447.813 10.5C448.077 10.724 448.289 10.928 448.449 11.112C448.617 11.296 448.761 11.524 448.881 11.796C449.001 12.06 449.061 12.372 449.061 12.732C449.061 13.228 448.937 13.656 448.689 14.016C448.449 14.376 448.121 14.652 447.705 14.844C447.297 15.028 446.845 15.12 446.349 15.12C445.845 15.12 445.385 15.016 444.969 14.808C444.561 14.6 444.237 14.304 443.997 13.92C443.765 13.528 443.649 13.08 443.649 12.576C443.649 12.336 443.673 12.092 443.721 11.844L444.885 11.88C444.845 12.104 444.825 12.304 444.825 12.48C444.825 12.992 444.965 13.396 445.245 13.692C445.525 13.98 445.893 14.124 446.349 14.124C446.805 14.124 447.173 14 447.453 13.752C447.741 13.504 447.885 13.156 447.885 12.708C447.885 12.38 447.801 12.108 447.633 11.892C447.473 11.676 447.225 11.428 446.889 11.148C446.633 10.932 446.425 10.744 446.265 10.584C446.113 10.416 445.985 10.212 445.881 9.972C445.785 9.724 445.745 9.44 445.761 9.12H446.937Z" fill="#454857"/>
</svg>
