<svg width="41" height="20" viewBox="0 0 41 20" fill="none" xmlns="http://www.w3.org/2000/svg">
<rect width="41" height="20" rx="10" fill="#FEC900"/>
<path d="M9.54 6.86L11.13 11.88H11.15L12.76 6.86H14.38L12.01 14H10.24L7.92 6.86H9.54ZM16.5588 14H14.9888V6.86H16.5588V14ZM17.938 6.86H21.168C21.708 6.86 22.1614 6.96 22.528 7.16C22.8947 7.36 23.168 7.63333 23.348 7.98C23.5347 8.32667 23.628 8.71667 23.628 9.15C23.628 9.59 23.5347 9.98333 23.348 10.33C23.168 10.67 22.8947 10.94 22.528 11.14C22.1614 11.34 21.7114 11.44 21.178 11.44H19.508V14H17.938V6.86ZM19.508 10.22H20.758C21.218 10.22 21.558 10.1367 21.778 9.97C21.998 9.79667 22.108 9.52333 22.108 9.15C22.108 8.78333 21.998 8.51333 21.778 8.34C21.5647 8.16667 21.228 8.08 20.768 8.08H19.508V10.22ZM27.1812 12.01V10.94H29.1712V8.95H30.2412V10.94H32.2312V12.01H30.2412V14H29.1712V12.01H27.1812Z" fill="white"/>
</svg>
